<svg width="862" height="295" viewBox="0 0 862 295" fill="none" xmlns="http://www.w3.org/2000/svg">
<rect x="3" y="3" width="856" height="289" rx="47" fill="black"/>
<rect x="1.5" y="1.5" width="859" height="292" rx="48.5" stroke="white" stroke-opacity="0.3" stroke-width="3"/>
<path d="M178.575 56C178.998 56 179.421 56 179.869 56C180.907 68.835 176.012 78.4253 170.064 85.3703C164.227 92.2673 156.235 98.9566 143.309 97.9416C142.446 85.2904 147.349 76.4114 153.289 69.4824C158.798 63.0249 168.898 57.2787 178.575 56Z" fill="white"/>
<path d="M217.706 189.593C217.706 189.721 217.706 189.833 217.706 189.953C214.073 200.966 208.891 210.404 202.568 219.163C196.795 227.115 189.721 237.816 177.09 237.816C166.176 237.816 158.926 230.791 147.74 230.6C135.908 230.408 129.4 236.474 118.582 238C117.344 238 116.107 238 114.893 238C106.949 236.849 100.537 230.552 95.8666 224.877C82.0938 208.11 71.4508 186.452 69.4707 158.736C69.4707 156.019 69.4707 153.31 69.4707 150.592C70.309 130.757 79.938 114.629 92.7368 106.813C99.4914 102.657 108.777 99.1165 119.117 100.699C123.548 101.386 128.075 102.905 132.043 104.407C135.804 105.854 140.506 108.419 144.962 108.283C147.98 108.195 150.982 106.621 154.024 105.51C162.934 102.289 171.669 98.597 183.182 100.331C197.019 102.425 206.839 108.579 212.907 118.073C201.203 125.53 191.949 136.766 193.53 155.955C194.935 173.385 205.059 183.583 217.706 189.593Z" fill="white"/>
<path d="M285.776 108V58.2344H299.824C304.154 58.2344 307.982 59.1914 311.309 61.1055C314.635 63.0195 317.199 65.7425 318.999 69.2744C320.822 72.8063 321.745 76.8623 321.768 81.4424V84.6211C321.768 89.3151 320.856 93.4281 319.033 96.96C317.233 100.492 314.647 103.203 311.274 105.095C307.925 106.986 304.017 107.954 299.551 108H285.776ZM292.339 63.6348V102.634H299.243C304.302 102.634 308.232 101.062 311.035 97.917C313.861 94.7725 315.273 90.2949 315.273 84.4844V81.5791C315.273 75.9281 313.94 71.5417 311.274 68.4199C308.631 65.2754 304.871 63.6803 299.995 63.6348H292.339ZM329.048 89.167C329.048 85.5439 329.754 82.2855 331.167 79.3916C332.603 76.4977 334.585 74.2646 337.114 72.6924C339.666 71.1201 342.572 70.334 345.83 70.334C350.866 70.334 354.933 72.0771 358.032 75.5635C361.154 79.0498 362.715 83.6868 362.715 89.4746V89.9189C362.715 93.5192 362.02 96.7549 360.63 99.626C359.263 102.474 357.292 104.696 354.717 106.291C352.165 107.886 349.225 108.684 345.898 108.684C340.885 108.684 336.818 106.94 333.696 103.454C330.597 99.9678 329.048 95.3535 329.048 89.6113V89.167ZM335.405 89.9189C335.405 94.0205 336.351 97.3132 338.242 99.7969C340.156 102.281 342.708 103.522 345.898 103.522C349.111 103.522 351.663 102.269 353.555 99.7627C355.446 97.2334 356.392 93.7015 356.392 89.167C356.392 85.111 355.423 81.8298 353.486 79.3232C351.572 76.7939 349.02 75.5293 345.83 75.5293C342.708 75.5293 340.19 76.7712 338.276 79.2549C336.362 81.7386 335.405 85.2933 335.405 89.9189ZM403.389 99.2842L410.498 71.0176H416.821L406.055 108H400.928L391.938 79.9727L383.188 108H378.062L367.329 71.0176H373.618L380.898 98.7031L389.512 71.0176H394.604L403.389 99.2842ZM429.263 71.0176L429.468 75.666C432.293 72.1113 435.985 70.334 440.542 70.334C448.358 70.334 452.3 74.7432 452.368 83.5615V108H446.045V83.5273C446.022 80.8613 445.407 78.8903 444.199 77.6143C443.014 76.3382 441.157 75.7002 438.628 75.7002C436.577 75.7002 434.777 76.2471 433.228 77.3408C431.678 78.4346 430.47 79.8701 429.604 81.6475V108H423.281V71.0176H429.263ZM468.774 108H462.451V55.5H468.774V108ZM477.251 89.167C477.251 85.5439 477.957 82.2855 479.37 79.3916C480.806 76.4977 482.788 74.2646 485.317 72.6924C487.869 71.1201 490.775 70.334 494.033 70.334C499.069 70.334 503.136 72.0771 506.235 75.5635C509.357 79.0498 510.918 83.6868 510.918 89.4746V89.9189C510.918 93.5192 510.223 96.7549 508.833 99.626C507.466 102.474 505.495 104.696 502.92 106.291C500.368 107.886 497.428 108.684 494.102 108.684C489.089 108.684 485.021 106.94 481.899 103.454C478.8 99.9678 477.251 95.3535 477.251 89.6113V89.167ZM483.608 89.9189C483.608 94.0205 484.554 97.3132 486.445 99.7969C488.359 102.281 490.911 103.522 494.102 103.522C497.314 103.522 499.867 102.269 501.758 99.7627C503.649 97.2334 504.595 93.7015 504.595 89.167C504.595 85.111 503.626 81.8298 501.689 79.3232C499.775 76.7939 497.223 75.5293 494.033 75.5293C490.911 75.5293 488.394 76.7712 486.479 79.2549C484.565 81.7386 483.608 85.2933 483.608 89.9189ZM541.68 108C541.315 107.271 541.019 105.972 540.791 104.104C537.852 107.157 534.342 108.684 530.264 108.684C526.618 108.684 523.621 107.658 521.274 105.607C518.95 103.534 517.788 100.913 517.788 97.7461C517.788 93.8952 519.246 90.9102 522.163 88.791C525.103 86.6491 529.227 85.5781 534.536 85.5781H540.688V82.6729C540.688 80.4626 540.028 78.708 538.706 77.4092C537.384 76.0876 535.436 75.4268 532.861 75.4268C530.605 75.4268 528.714 75.9964 527.188 77.1357C525.661 78.2751 524.897 79.6536 524.897 81.2715H518.54C518.54 79.4258 519.189 77.6484 520.488 75.9395C521.81 74.2077 523.587 72.8405 525.82 71.8379C528.076 70.8353 530.549 70.334 533.237 70.334C537.498 70.334 540.837 71.4049 543.252 73.5469C545.667 75.666 546.921 78.5941 547.012 82.3311V99.3525C547.012 102.748 547.445 105.448 548.311 107.453V108H541.68ZM531.187 103.181C533.169 103.181 535.049 102.668 536.826 101.643C538.604 100.617 539.891 99.2842 540.688 97.6436V90.0557H535.732C527.985 90.0557 524.111 92.3229 524.111 96.8574C524.111 98.8398 524.772 100.389 526.094 101.506C527.415 102.622 529.113 103.181 531.187 103.181ZM555.386 89.2012C555.386 83.5273 556.73 78.9701 559.419 75.5293C562.108 72.0658 565.628 70.334 569.98 70.334C574.31 70.334 577.739 71.8151 580.269 74.7773V55.5H586.592V108H580.781L580.474 104.035C577.944 107.134 574.424 108.684 569.912 108.684C565.628 108.684 562.131 106.929 559.419 103.42C556.73 99.9108 555.386 95.3307 555.386 89.6797V89.2012ZM561.709 89.9189C561.709 94.1117 562.575 97.3929 564.307 99.7627C566.038 102.132 568.431 103.317 571.484 103.317C575.495 103.317 578.423 101.517 580.269 97.917V80.9297C578.377 77.4434 575.472 75.7002 571.553 75.7002C568.454 75.7002 566.038 76.8965 564.307 79.2891C562.575 81.6816 561.709 85.2249 561.709 89.9189ZM612.124 89.167C612.124 85.5439 612.83 82.2855 614.243 79.3916C615.679 76.4977 617.661 74.2646 620.19 72.6924C622.743 71.1201 625.648 70.334 628.906 70.334C633.942 70.334 638.009 72.0771 641.108 75.5635C644.23 79.0498 645.791 83.6868 645.791 89.4746V89.9189C645.791 93.5192 645.096 96.7549 643.706 99.626C642.339 102.474 640.368 104.696 637.793 106.291C635.241 107.886 632.301 108.684 628.975 108.684C623.962 108.684 619.894 106.94 616.772 103.454C613.674 99.9678 612.124 95.3535 612.124 89.6113V89.167ZM618.481 89.9189C618.481 94.0205 619.427 97.3132 621.318 99.7969C623.232 102.281 625.785 103.522 628.975 103.522C632.188 103.522 634.74 102.269 636.631 99.7627C638.522 97.2334 639.468 93.7015 639.468 89.167C639.468 85.111 638.499 81.8298 636.562 79.3232C634.648 76.7939 632.096 75.5293 628.906 75.5293C625.785 75.5293 623.267 76.7712 621.353 79.2549C619.438 81.7386 618.481 85.2933 618.481 89.9189ZM659.702 71.0176L659.907 75.666C662.733 72.1113 666.424 70.334 670.981 70.334C678.797 70.334 682.739 74.7432 682.808 83.5615V108H676.484V83.5273C676.462 80.8613 675.846 78.8903 674.639 77.6143C673.454 76.3382 671.597 75.7002 669.067 75.7002C667.017 75.7002 665.216 76.2471 663.667 77.3408C662.118 78.4346 660.91 79.8701 660.044 81.6475V108H653.721V71.0176H659.702ZM718.286 62.0625V71.0176H725.19V75.9053H718.286V98.8398C718.286 100.321 718.594 101.438 719.209 102.189C719.824 102.919 720.872 103.283 722.354 103.283C723.083 103.283 724.085 103.146 725.361 102.873V108C723.698 108.456 722.08 108.684 720.508 108.684C717.682 108.684 715.552 107.829 714.116 106.12C712.681 104.411 711.963 101.984 711.963 98.8398V75.9053H705.229V71.0176H711.963V62.0625H718.286ZM738.931 75.4951C741.733 72.0544 745.379 70.334 749.868 70.334C757.684 70.334 761.626 74.7432 761.694 83.5615V108H755.371V83.5273C755.348 80.8613 754.733 78.8903 753.525 77.6143C752.34 76.3382 750.483 75.7002 747.954 75.7002C745.903 75.7002 744.103 76.2471 742.554 77.3408C741.004 78.4346 739.797 79.8701 738.931 81.6475V108H732.607V55.5H738.931V75.4951ZM786.509 108.684C781.496 108.684 777.417 107.043 774.272 103.762C771.128 100.458 769.556 96.0485 769.556 90.5342V89.3721C769.556 85.7035 770.251 82.4336 771.641 79.5625C773.053 76.6686 775.013 74.4128 777.52 72.7949C780.049 71.1543 782.783 70.334 785.723 70.334C790.531 70.334 794.268 71.9176 796.934 75.085C799.6 78.2523 800.933 82.7868 800.933 88.6885V91.3203H775.879C775.97 94.9661 777.03 97.917 779.058 100.173C781.108 102.406 783.706 103.522 786.851 103.522C789.084 103.522 790.975 103.067 792.524 102.155C794.074 101.244 795.43 100.036 796.592 98.5322L800.454 101.54C797.355 106.302 792.707 108.684 786.509 108.684ZM785.723 75.5293C783.171 75.5293 781.029 76.4635 779.297 78.332C777.565 80.1777 776.494 82.7754 776.084 86.125H794.609V85.6465C794.427 82.4336 793.561 79.9499 792.012 78.1953C790.462 76.418 788.366 75.5293 785.723 75.5293Z" fill="white"/>
<path d="M334.636 202.662H300.383L292.69 224H281.572L312.793 142.242H322.227L353.503 224H342.441L334.636 202.662ZM303.64 193.79H331.436L317.51 155.55L303.64 193.79ZM414.204 194.295C414.204 203.542 412.089 210.991 407.859 216.644C403.629 222.297 397.901 225.123 390.676 225.123C383.302 225.123 377.499 222.783 373.269 218.104V247.359H362.881V163.243H372.371L372.876 169.981C377.106 164.741 382.983 162.12 390.508 162.12C397.808 162.12 403.573 164.872 407.803 170.375C412.07 175.877 414.204 183.533 414.204 193.341V194.295ZM403.816 193.116C403.816 186.266 402.356 180.856 399.436 176.888C396.516 172.92 392.511 170.936 387.419 170.936C381.13 170.936 376.414 173.725 373.269 179.303V208.333C376.376 213.874 381.13 216.644 387.532 216.644C392.511 216.644 396.46 214.679 399.38 210.748C402.337 206.78 403.816 200.903 403.816 193.116ZM478.779 194.295C478.779 203.542 476.664 210.991 472.434 216.644C468.204 222.297 462.476 225.123 455.251 225.123C447.877 225.123 442.074 222.783 437.844 218.104V247.359H427.456V163.243H436.946L437.451 169.981C441.681 164.741 447.559 162.12 455.083 162.12C462.383 162.12 468.148 164.872 472.378 170.375C476.646 175.877 478.779 183.533 478.779 193.341V194.295ZM468.391 193.116C468.391 186.266 466.931 180.856 464.011 176.888C461.091 172.92 457.086 170.936 451.995 170.936C445.706 170.936 440.989 173.725 437.844 179.303V208.333C440.951 213.874 445.706 216.644 452.107 216.644C457.086 216.644 461.035 214.679 463.955 210.748C466.912 206.78 468.391 200.903 468.391 193.116ZM546.274 187.557C537.028 184.899 530.29 181.642 526.06 177.787C521.867 173.893 519.771 169.102 519.771 163.412C519.771 156.973 522.335 151.657 527.463 147.464C532.629 143.234 539.33 141.119 547.566 141.119C553.181 141.119 558.179 142.205 562.559 144.376C566.976 146.547 570.382 149.542 572.778 153.36C575.212 157.179 576.428 161.353 576.428 165.882H565.591C565.591 160.941 564.019 157.066 560.874 154.259C557.729 151.414 553.293 149.991 547.566 149.991C542.25 149.991 538.095 151.17 535.1 153.529C532.143 155.85 530.664 159.088 530.664 163.243C530.664 166.575 532.068 169.401 534.875 171.722C537.721 174.006 542.531 176.102 549.307 178.011C556.12 179.92 561.436 182.035 565.254 184.356C569.11 186.64 571.955 189.317 573.789 192.386C575.661 195.456 576.597 199.068 576.597 203.224C576.597 209.85 574.014 215.165 568.848 219.171C563.682 223.139 556.775 225.123 548.127 225.123C542.512 225.123 537.271 224.056 532.405 221.922C527.538 219.751 523.776 216.794 521.118 213.05C518.498 209.307 517.188 205.058 517.188 200.304H528.025C528.025 205.245 529.84 209.157 533.472 212.04C537.14 214.885 542.026 216.307 548.127 216.307C553.818 216.307 558.179 215.147 561.211 212.826C564.243 210.505 565.759 207.341 565.759 203.336C565.759 199.33 564.355 196.242 561.548 194.071C558.74 191.862 553.649 189.691 546.274 187.557ZM602.932 148.531V163.243H614.275V171.273H602.932V208.951C602.932 211.384 603.438 213.219 604.448 214.454C605.459 215.652 607.181 216.251 609.614 216.251C610.812 216.251 612.459 216.026 614.556 215.577V224C611.823 224.749 609.165 225.123 606.582 225.123C601.94 225.123 598.44 223.719 596.082 220.912C593.723 218.104 592.544 214.117 592.544 208.951V171.273H581.482V163.243H592.544V148.531H602.932ZM622.585 193.06C622.585 187.108 623.746 181.755 626.067 177C628.425 172.246 631.682 168.578 635.837 165.995C640.03 163.412 644.803 162.12 650.156 162.12C658.429 162.12 665.111 164.984 670.203 170.711C675.331 176.439 677.896 184.057 677.896 193.565V194.295C677.896 200.21 676.754 205.526 674.47 210.243C672.224 214.922 668.986 218.572 664.756 221.192C660.563 223.813 655.734 225.123 650.269 225.123C642.033 225.123 635.351 222.259 630.222 216.532C625.131 210.804 622.585 203.224 622.585 193.79V193.06ZM633.03 194.295C633.03 201.034 634.583 206.443 637.69 210.523C640.835 214.604 645.028 216.644 650.269 216.644C655.547 216.644 659.74 214.585 662.847 210.467C665.954 206.312 667.507 200.51 667.507 193.06C667.507 186.397 665.916 181.006 662.734 176.888C659.59 172.733 655.397 170.655 650.156 170.655C645.028 170.655 640.891 172.695 637.747 176.776C634.602 180.856 633.03 186.696 633.03 194.295ZM720.291 172.564C718.718 172.302 717.015 172.171 715.181 172.171C708.368 172.171 703.744 175.073 701.311 180.875V224H690.923V163.243H701.03L701.199 170.262C704.605 164.834 709.434 162.12 715.686 162.12C717.708 162.12 719.242 162.382 720.291 162.906V172.564ZM753.982 225.123C745.746 225.123 739.045 222.428 733.879 217.037C728.713 211.609 726.13 204.365 726.13 195.306V193.397C726.13 187.37 727.272 181.998 729.556 177.281C731.877 172.527 735.096 168.821 739.214 166.163C743.369 163.468 747.861 162.12 752.69 162.12C760.589 162.12 766.729 164.722 771.108 169.925C775.488 175.129 777.678 182.578 777.678 192.274V196.598H736.519C736.668 202.587 738.409 207.435 741.741 211.141C745.11 214.81 749.377 216.644 754.543 216.644C758.212 216.644 761.319 215.895 763.865 214.398C766.41 212.901 768.638 210.917 770.547 208.446L776.892 213.387C771.801 221.211 764.164 225.123 753.982 225.123ZM752.69 170.655C748.498 170.655 744.979 172.19 742.134 175.26C739.289 178.292 737.529 182.56 736.855 188.062H767.29V187.276C766.991 181.998 765.568 177.918 763.022 175.035C760.477 172.115 757.033 170.655 752.69 170.655Z" fill="white"/>
</svg>
