<svg width="916" height="295" viewBox="0 0 916 295" fill="none" xmlns="http://www.w3.org/2000/svg">
<rect x="3" y="3" width="910" height="289" rx="47" fill="black"/>
<rect x="1.5" y="1.5" width="913" height="292" rx="48.5" stroke="white" stroke-opacity="0.3" stroke-width="3"/>
<path d="M201.434 134.23L171.557 116.917L140.97 147.604L171.555 178.289L201.535 160.919C206.211 158.069 209 153.091 209 147.604C209 142.117 206.208 137.139 201.434 134.23V134.23Z" fill="#FFCE00"/>
<path d="M140.97 147.605L57.6575 63.417C54.7598 66.3242 53 70.2691 53 74.6299V220.323C53 224.683 54.7598 228.628 57.6575 231.538L140.97 147.605Z" fill="url(#paint0_linear_787_457)"/>
<path d="M140.97 147.604L171.557 116.917L171.606 116.868L130.623 93.1947L76.5987 61.3392C71.7339 58.328 65.8348 58.224 60.8664 61.0272C59.7285 61.7529 58.692 62.4808 57.6577 63.4145L140.97 147.604Z" fill="#00F076"/>
<path d="M57.6577 231.534C58.692 232.468 59.7285 233.196 60.8664 233.922C63.3495 235.271 65.9385 235.999 68.5252 235.999C71.3193 235.999 74.0097 235.17 76.495 233.716L130.621 202.013L171.603 178.339L171.555 178.291L140.97 147.604L57.6577 231.534Z" fill="#F63448"/>
<path d="M296.52 101.472C294.833 103.887 292.475 105.699 289.444 106.906C286.437 108.091 282.927 108.684 278.917 108.684C274.861 108.684 271.261 107.738 268.116 105.847C264.972 103.933 262.534 101.221 260.802 97.7119C259.093 94.2028 258.215 90.1354 258.17 85.5098V81.1689C258.17 73.6722 259.913 67.8617 263.399 63.7373C266.909 59.613 271.83 57.5508 278.165 57.5508C283.36 57.5508 287.542 58.8838 290.709 61.5498C293.876 64.193 295.813 67.9528 296.52 72.8291H289.957C288.727 66.2438 284.807 62.9512 278.199 62.9512C273.801 62.9512 270.463 64.5007 268.185 67.5996C265.929 70.6758 264.789 75.1419 264.767 80.998V85.0654C264.767 90.6481 266.043 95.0915 268.595 98.3955C271.147 101.677 274.599 103.317 278.951 103.317C281.412 103.317 283.565 103.044 285.411 102.497C287.257 101.95 288.784 101.027 289.991 99.7285V88.5518H278.473V83.2197H296.52V101.472ZM335.621 84.9971H314.054V102.634H339.107V108H307.491V58.2344H338.766V63.6348H314.054V79.6309H335.621V84.9971ZM382.345 63.6348H366.349V108H359.82V63.6348H343.858V58.2344H382.345V63.6348ZM412.765 108H406.202V58.2344H412.765V108ZM458.155 63.6348H442.159V108H435.631V63.6348H419.669V58.2344H458.155V63.6348ZM519.815 84.7236C519.815 89.5999 518.995 93.861 517.354 97.5068C515.714 101.13 513.39 103.898 510.382 105.812C507.374 107.727 503.865 108.684 499.854 108.684C495.935 108.684 492.46 107.727 489.43 105.812C486.399 103.876 484.041 101.13 482.354 97.5752C480.691 93.9977 479.837 89.862 479.791 85.168V81.5791C479.791 76.7939 480.623 72.5671 482.286 68.8984C483.95 65.2298 486.297 62.4271 489.327 60.4902C492.381 58.5306 495.867 57.5508 499.786 57.5508C503.774 57.5508 507.283 58.5192 510.313 60.4561C513.367 62.3701 515.714 65.1615 517.354 68.8301C518.995 72.4759 519.815 76.7256 519.815 81.5791V84.7236ZM513.287 81.5107C513.287 75.609 512.102 71.0859 509.732 67.9414C507.363 64.7741 504.047 63.1904 499.786 63.1904C495.639 63.1904 492.369 64.7741 489.977 67.9414C487.607 71.0859 486.388 75.4609 486.319 81.0664V84.7236C486.319 90.443 487.516 94.9434 489.908 98.2246C492.324 101.483 495.639 103.112 499.854 103.112C504.093 103.112 507.374 101.574 509.698 98.498C512.022 95.3991 513.219 90.9671 513.287 85.2021V81.5107ZM567.906 108H561.31L536.256 69.6504V108H529.659V58.2344H536.256L561.378 96.7549V58.2344H567.906V108Z" fill="white"/>
<path d="M323.854 213.275C321.083 217.243 317.209 220.219 312.23 222.203C307.289 224.15 301.524 225.123 294.935 225.123C288.272 225.123 282.357 223.569 277.191 220.462C272.025 217.318 268.019 212.863 265.174 207.098C262.367 201.333 260.925 194.651 260.851 187.052V179.92C260.851 167.604 263.714 158.058 269.442 151.283C275.207 144.507 283.293 141.119 293.7 141.119C302.235 141.119 309.104 143.309 314.308 147.689C319.511 152.031 322.693 158.208 323.854 166.219H313.072C311.051 155.401 304.612 149.991 293.756 149.991C286.531 149.991 281.047 152.537 277.303 157.628C273.597 162.682 271.725 170.019 271.688 179.64V186.322C271.688 195.493 273.784 202.793 277.977 208.221C282.17 213.612 287.841 216.307 294.991 216.307C299.034 216.307 302.572 215.858 305.604 214.959C308.636 214.061 311.144 212.545 313.128 210.411V192.049H294.205V183.29H323.854V213.275ZM337.499 193.06C337.499 187.108 338.659 181.755 340.98 177C343.338 172.246 346.595 168.578 350.75 165.995C354.943 163.412 359.716 162.12 365.069 162.12C373.342 162.12 380.025 164.984 385.116 170.711C390.244 176.439 392.809 184.057 392.809 193.565V194.295C392.809 200.21 391.667 205.526 389.383 210.243C387.137 214.922 383.899 218.572 379.669 221.192C375.476 223.813 370.647 225.123 365.182 225.123C356.946 225.123 350.264 222.259 345.135 216.532C340.044 210.804 337.499 203.224 337.499 193.79V193.06ZM347.943 194.295C347.943 201.034 349.496 206.443 352.604 210.523C355.748 214.604 359.941 216.644 365.182 216.644C370.46 216.644 374.653 214.585 377.76 210.467C380.867 206.312 382.42 200.51 382.42 193.06C382.42 186.397 380.829 181.006 377.647 176.888C374.503 172.733 370.31 170.655 365.069 170.655C359.941 170.655 355.804 172.695 352.66 176.776C349.515 180.856 347.943 186.696 347.943 194.295ZM403.084 193.06C403.084 187.108 404.245 181.755 406.566 177C408.924 172.246 412.181 168.578 416.336 165.995C420.529 163.412 425.302 162.12 430.655 162.12C438.928 162.12 445.611 164.984 450.702 170.711C455.83 176.439 458.395 184.057 458.395 193.565V194.295C458.395 200.21 457.253 205.526 454.969 210.243C452.723 214.922 449.485 218.572 445.255 221.192C441.062 223.813 436.233 225.123 430.768 225.123C422.532 225.123 415.85 222.259 410.721 216.532C405.63 210.804 403.084 203.224 403.084 193.79V193.06ZM413.529 194.295C413.529 201.034 415.082 206.443 418.189 210.523C421.334 214.604 425.527 216.644 430.768 216.644C436.046 216.644 440.239 214.585 443.346 210.467C446.453 206.312 448.006 200.51 448.006 193.06C448.006 186.397 446.415 181.006 443.233 176.888C440.089 172.733 435.896 170.655 430.655 170.655C425.527 170.655 421.39 172.695 418.246 176.776C415.101 180.856 413.529 186.696 413.529 194.295ZM468.951 193.116C468.951 183.645 471.141 176.121 475.521 170.543C479.901 164.928 485.703 162.12 492.928 162.12C500.34 162.12 506.124 164.741 510.279 169.981L510.785 163.243H520.274V222.54C520.274 230.401 517.935 236.597 513.255 241.126C508.613 245.656 502.362 247.921 494.5 247.921C490.121 247.921 485.834 246.985 481.642 245.113C477.449 243.242 474.248 240.677 472.04 237.42L477.43 231.188C481.885 236.69 487.332 239.442 493.771 239.442C498.824 239.442 502.755 238.019 505.562 235.174C508.408 232.329 509.83 228.324 509.83 223.158V217.936C505.675 222.727 500.003 225.123 492.816 225.123C485.703 225.123 479.938 222.259 475.521 216.532C471.141 210.804 468.951 202.999 468.951 193.116ZM479.396 194.295C479.396 201.146 480.799 206.537 483.607 210.467C486.415 214.361 490.345 216.307 495.399 216.307C501.95 216.307 506.76 213.331 509.83 207.379V179.64C506.648 173.837 501.875 170.936 495.511 170.936C490.458 170.936 486.508 172.901 483.663 176.832C480.818 180.763 479.396 186.584 479.396 194.295ZM547.284 224H536.896V137.75H547.284V224ZM589.173 225.123C580.938 225.123 574.237 222.428 569.071 217.037C563.905 211.609 561.322 204.365 561.322 195.306V193.397C561.322 187.37 562.464 181.998 564.747 177.281C567.068 172.527 570.287 168.821 574.405 166.163C578.561 163.468 583.053 162.12 587.882 162.12C595.781 162.12 601.92 164.722 606.3 169.925C610.68 175.129 612.87 182.578 612.87 192.274V196.598H571.71C571.86 202.587 573.6 207.435 576.932 211.141C580.301 214.81 584.569 216.644 589.735 216.644C593.403 216.644 596.511 215.895 599.056 214.398C601.602 212.901 603.829 210.917 605.738 208.446L612.083 213.387C606.992 221.211 599.356 225.123 589.173 225.123ZM587.882 170.655C583.689 170.655 580.17 172.19 577.325 175.26C574.48 178.292 572.721 182.56 572.047 188.062H602.481V187.276C602.182 181.998 600.759 177.918 598.214 175.035C595.668 172.115 592.224 170.655 587.882 170.655ZM665.877 191.993V224H655.096V142.242H685.25C694.197 142.242 701.197 144.526 706.251 149.093C711.342 153.66 713.888 159.706 713.888 167.23C713.888 175.166 711.398 181.287 706.419 185.592C701.478 189.859 694.384 191.993 685.138 191.993H665.877ZM665.877 183.177H685.25C691.015 183.177 695.432 181.83 698.502 179.134C701.572 176.402 703.106 172.471 703.106 167.342C703.106 162.476 701.572 158.583 698.502 155.663C695.432 152.743 691.221 151.227 685.868 151.114H665.877V183.177ZM737.303 224H726.915V137.75H737.303V224ZM791.49 224C790.891 222.802 790.405 220.668 790.03 217.599C785.201 222.615 779.436 225.123 772.735 225.123C766.746 225.123 761.823 223.438 757.967 220.069C754.149 216.663 752.24 212.358 752.24 207.154C752.24 200.828 754.636 195.924 759.427 192.442C764.256 188.924 771.032 187.164 779.754 187.164H789.862V182.391C789.862 178.76 788.776 175.877 786.605 173.744C784.434 171.572 781.233 170.487 777.003 170.487C773.297 170.487 770.19 171.423 767.682 173.294C765.174 175.166 763.919 177.431 763.919 180.089H753.475C753.475 177.057 754.542 174.137 756.676 171.329C758.847 168.484 761.767 166.238 765.436 164.591C769.142 162.944 773.203 162.12 777.621 162.12C784.621 162.12 790.105 163.88 794.073 167.398C798.041 170.88 800.1 175.69 800.25 181.83V209.793C800.25 215.371 800.961 219.807 802.384 223.102V224H791.49ZM774.251 216.083C777.508 216.083 780.597 215.24 783.517 213.556C786.437 211.871 788.552 209.681 789.862 206.986V194.52H781.72C768.992 194.52 762.628 198.245 762.628 205.694C762.628 208.951 763.714 211.497 765.885 213.331C768.056 215.165 770.845 216.083 774.251 216.083ZM835.514 208.783L849.664 163.243H860.782L836.356 233.377C832.575 243.485 826.567 248.539 818.331 248.539L816.366 248.37L812.491 247.64V239.217L815.299 239.442C818.818 239.442 821.55 238.731 823.497 237.308C825.481 235.886 827.11 233.284 828.382 229.503L830.685 223.326L809.01 163.243H820.353L835.514 208.783Z" fill="white"/>
<defs>
<linearGradient id="paint0_linear_787_457" x1="15.7664" y1="189.507" x2="99.8252" y2="105.721" gradientUnits="userSpaceOnUse">
<stop stop-color="#00E2FF"/>
<stop offset="1" stop-color="#00C5FF"/>
</linearGradient>
</defs>
</svg>
